<svg xmlns="http://www.w3.org/2000/svg" xmlns:xlink="http://www.w3.org/1999/xlink" id="Layer_1" x="0px" y="0px" viewBox="0 0 134 143" style="enable-background:new 0 0 134 143;" xml:space="preserve"><style type="text/css">	.st0{fill:none;stroke:#C4CBF5;stroke-opacity:0.41;}	.st1{fill:#E09B22;}	.st2{fill:#FFB602;}	.st3{fill:#FFFFFF;}</style><path class="st0" d="M67,0.5L67,0.5c32.9,0,59.5,26.6,59.5,59.5l0,0c0,32.9-26.6,59.5-59.5,59.5l0,0C34.1,119.5,7.5,92.9,7.5,60l0,0 C7.5,27.1,34.1,0.5,67,0.5z"></path><path class="st1" d="M67,9L67,9c28.2,0,51,22.8,51,51l0,0c0,28.2-22.8,51-51,51l0,0c-28.2,0-51-22.8-51-51l0,0C16,31.8,38.8,9,67,9z "></path><g>	<path class="st2" d="M67,17L67,17c23.7,0,43,19.3,43,43l0,0c0,23.7-19.3,43-43,43l0,0c-23.7,0-43-19.3-43-43l0,0  C24,36.3,43.3,17,67,17z"></path></g><path class="st3" d="M67,80.8c-11.5,0-20.8-9.3-20.8-20.8c0-11.5,9.3-20.8,20.8-20.8S87.8,48.5,87.8,60C87.8,71.5,78.5,80.8,67,80.8 z M67,76.7c9.2,0,16.7-7.5,16.7-16.7c0-9.2-7.5-16.7-16.7-16.7S50.3,50.8,50.3,60C50.3,69.2,57.8,76.7,67,76.7z M56.6,62.1h18.8v4.2 H67v6.3L56.6,62.1z M67,53.8v-6.3l10.4,10.4H58.7v-4.2H67z"></path></svg>